<?xml version="1.0" standalone="no"?>
<!DOCTYPE svg PUBLIC "-//W3C//DTD SVG 1.1//EN" "http://www.w3.org/Graphics/SVG/1.1/DTD/svg11.dtd" >
<!--
2016-4-27: Created with FontForge (http://fontforge.org)
-->
<svg xmlns="http://www.w3.org/2000/svg" xmlns:xlink="http://www.w3.org/1999/xlink" version="1.1">
<metadata>
Created by FontForge 20150913 at Wed Apr 27 16:01:42 2016
 By Clodéric Mars
Copyright (c) 2016, Clod&#195;&#169;ric Mars
</metadata>
<defs>
<font id="craft-ai-icons" horiz-adv-x="512" >
  <font-face 
    font-family="craft-ai-icons"
    font-weight="400"
    font-stretch="normal"
    units-per-em="512"
    panose-1="2 0 5 3 0 0 0 0 0 0"
    ascent="448"
    descent="-64"
    bbox="0 -64 512 448"
    underline-thickness="25.6"
    underline-position="-51.2"
    unicode-range="U+0020-F119"
  />
    <missing-glyph />
    <glyph glyph-name="space" unicode=" " horiz-adv-x="200" 
 />
    <glyph glyph-name="uniF108" unicode="&#xf108;" 
d="M336 304c0 48 -32 64 -80 64s-80 -16 -80 -80h-64c1.63184 96.6523 78.7363 128.253 144 128s144 -32 144 -112s-112 -96 -112 -192v-32h-64v48c0 96 112 112 112 176zM224 32h64v-64l-64 -1.29785v65.2979z" />
    <glyph glyph-name="uniF10A" unicode="&#xf10a;" 
d="M256 416h96v-96h-17.375c18.3174 -29.5645 49.4023 -50.7529 67.4062 -80h45.9688v-96h-96v96h17.6875c-17.5889 27.9922 -47.3506 48.1846 -65.6875 75.7812c-18.3369 -27.5967 -48.0986 -47.7891 -65.6875 -75.7812h17.6875v-96h-17.375
c18.3271 -29.5801 49.5254 -50.7178 67.5 -80h45.875v-96h-96v96h17.6875c-17.5889 27.9922 -47.3506 48.1846 -65.6875 75.7812c-18.3369 -27.5967 -48.0986 -47.7891 -65.6875 -75.7812h17.6875v-96h-96v96h45.875c17.9746 29.2822 49.1729 50.4199 67.5 80h-17.375v96
h45.9688c18.0039 29.2471 49.0889 50.4355 67.4062 80h-17.375v96z" />
    <glyph glyph-name="uniF119" unicode="&#xf119;" 
d="M369.76 -32h-227.52c-0.517578 -0.0771484 -1.36133 -0.139648 -1.88379 -0.139648c-7.06543 0 -12.7998 5.73438 -12.7998 12.8008c0 0.9375 0.198242 2.43359 0.443359 3.33887v416c-0.245117 0.905273 -0.443359 2.40137 -0.443359 3.33887
c0 7.06641 5.73438 12.8008 12.7998 12.8008c0.522461 0 1.36621 -0.0625 1.88379 -0.139648h227.52c0.517578 0.0771484 1.36133 0.139648 1.88379 0.139648c7.06543 0 12.7998 -5.73438 12.7998 -12.8008c0 -0.9375 -0.198242 -2.43359 -0.443359 -3.33887v-416
c0.245117 -0.905273 0.443359 -2.40137 0.443359 -3.33887c0 -7.06641 -5.73438 -12.8008 -12.7998 -12.8008c-0.522461 0 -1.36621 0.0625 -1.88379 0.139648zM370.08 304h72.1602c3.38184 -2.65234 6.12695 -8.29297 6.12695 -12.5908
c0 -0.952148 -0.164062 -2.47949 -0.367188 -3.40918v0c0.19043 -0.901367 0.344727 -2.38086 0.344727 -3.30273c0 -4.35742 -2.80664 -10.0459 -6.26465 -12.6973h-72zM370.08 208h72c3.45801 -2.65137 6.26465 -8.33984 6.26465 -12.6973
c0 -0.921875 -0.154297 -2.40137 -0.344727 -3.30273v0c0.19043 -0.901367 0.344727 -2.38086 0.344727 -3.30273c0 -4.35742 -2.80664 -10.0459 -6.26465 -12.6973h-72zM370.08 112h72.1602c3.38184 -2.65234 6.12695 -8.29297 6.12695 -12.5908
c0 -0.952148 -0.164062 -2.47949 -0.367188 -3.40918v0c0.19043 -0.901367 0.344727 -2.38086 0.344727 -3.30273c0 -4.35742 -2.80664 -10.0459 -6.26465 -12.6973h-72zM142.08 304h-72.1602c-3.45801 -2.65137 -6.26465 -8.33984 -6.26465 -12.6973
c0 -0.921875 0.154297 -2.40137 0.344727 -3.30273v0c-0.19043 -0.901367 -0.344727 -2.38086 -0.344727 -3.30273c0 -4.35742 2.80664 -10.0459 6.26465 -12.6973h72.1602zM141.92 208h-72c-3.45801 -2.65137 -6.26465 -8.33984 -6.26465 -12.6973
c0 -0.921875 0.154297 -2.40137 0.344727 -3.30273v0c-0.19043 -0.901367 -0.344727 -2.38086 -0.344727 -3.30273c0 -4.35742 2.80664 -10.0459 6.26465 -12.6973h72zM142.08 112h-72.1602c-3.45801 -2.65137 -6.26465 -8.33984 -6.26465 -12.6973
c0 -0.921875 0.154297 -2.40137 0.344727 -3.30273v0c-0.19043 -0.901367 -0.344727 -2.38086 -0.344727 -3.30273c0 -4.35742 2.80664 -10.0459 6.26465 -12.6973h72.1602z" />
    <glyph glyph-name="uniF116" unicode="&#xf116;" 
d="M257.625 416c65.5176 -0.478516 148.229 -45.082 184.625 -99.5625c20.8428 -31.1885 37.7578 -86.9463 37.7578 -124.458c0 -51.2139 -29.3896 -122.171 -65.6016 -158.386l-22.7188 22.7188c31.0488 31.0137 56.2773 91.8018 56.3125 135.688
c0 105.984 -86.0156 192 -192 192s-192 -86.0156 -192 -192s86.0156 -192 192 -192v-32c-101.477 0.00488281 -199.896 80.7852 -219.688 180.312c-2.37402 11.9385 -4.2998 31.5078 -4.2998 43.6797c0 82.6152 61.9443 175.326 138.269 206.945
c22.7324 9.42188 61.1543 17.0684 85.7627 17.0684c0.436523 0 1.14453 -0.00292969 1.58105 -0.00585938zM368 128l112 -112h-112v112zM309.333 272.23c0 34.1865 -21.333 45.582 -53.333 45.582s-53.333 -11.3955 -53.333 -56.9775h-42.667
c1.08789 68.8379 52.4912 91.3438 96 91.1641s96 -22.791 96 -79.7686s-74.667 -68.373 -74.667 -136.746v-22.791h-42.666v34.1865c0 68.373 74.666 79.7686 74.666 125.351zM234.667 78.5068h42.666v-45.583l-42.666 -0.923828v46.5068z" />
    <glyph glyph-name="uniF111" unicode="&#xf111;" 
d="M80 176.086v0l96.6113 -85.1113l-96.6113 -108.178v193.289zM261.798 25.6855l-0.0214844 -0.0429688l59.7949 53.2832l101.627 -110.926h-334.798l100.293 112.301l62.1016 -54.7012c1.54492 -1.33105 3.5127 -1.97559 5.50098 -1.97559
c1.9043 0 3.91504 0.708984 5.50195 2.06152zM431.915 -16.7305l-97.7324 106.867l97.7324 87.0664v-193.934zM80.042 208l-0.0419922 -0.0644531h352v-7.64551l-175.641 -156.671l-176.317 155.21v9.1709zM256.125 416l79.875 -80h-64v-112h-32v112h-64z" />
    <glyph glyph-name="uniF101" unicode="&#xf101;" 
d="M352 432l144 -16v-384l-144 -80l-336 48v416zM126.281 334.031c-11.9941 0.00488281 -23.9336 -10.0029 -23.875 -30.0312v-75.1875c-0.162109 -40.6904 48.04 -39.9629 48 0v75.1875c-0.0839844 20.0078 -12.1309 30.0264 -24.125 30.0312zM231.906 334.031
c-11.9941 0.00488281 -23.9648 -10.0029 -23.9062 -30.0312v-80c-0.162109 -40.6904 48.04 -39.9629 48 0v80c-0.0839844 20.0078 -12.0996 30.0264 -24.0938 30.0312z" />
    <glyph glyph-name="uniF118" unicode="&#xf118;" 
d="M16 416l336 16l144 -16v-384l-144 -80l-336 48v416zM32 400v-384l320 -48v448zM208 304c-0.117188 40.0557 47.833 40.0166 48 0v-80c0.0400391 -39.9629 -48.1621 -40.6904 -48 0v80zM102.4 304.006c-0.117188 40.0557 47.833 40.0166 48 0v-75.2002
c0.0400391 -39.9629 -48.1621 -40.6904 -48 0v75.2002z" />
    <glyph glyph-name="uniF107" unicode="&#xf107;" 
d="M0 416c0 32 0 32 32 32h448c32 0 32 0 32 -32v-448c0 -32 0 -32 -32 -32h-448c-32 0 -32 0 -32 32v448z" />
    <glyph glyph-name="uniF105" unicode="&#xf105;" 
d="M48 320h304c8.86426 0 16 -7.13574 16 -16v-208c0 -8.86426 -7.13574 -16 -16 -16h-304c-8.86426 0 -16 7.13574 -16 16v208c0 8.86426 7.13574 16 16 16zM93.5625 304.062l109.438 -70.0625v-0.34375l109.969 70.4062h-219.406zM81.375 254.875v-158.812h240v156.375
l-118.406 -75.7812v0.40625zM416.313 416.039l63.751 -0.254883l-14.1396 -335.383h-33.3125zM416.61 31.4404l65.6523 -0.503906v-64.1611h-65.1455z" />
    <glyph glyph-name="uniF102" unicode="&#xf102;" 
d="M432 319.021v0c0 -44.8857 -78.8477 -81.3154 -176 -81.3154v0c-97.1523 0 -176 36.4297 -176 81.3154v0c0 44.8857 78.8477 81.3145 176 81.3145v0c97.1523 0 176 -36.4287 176 -81.3145v0zM80.2988 197.053c18.4512 -30.0732 46.6543 -43.0996 76.6748 -51.8643
c69.3125 -20.2344 138.731 -19.623 207.562 3.11328c18.9863 6.2998 36.7061 15.5273 51.3955 30.1104c5.59766 5.57715 9.53809 12.3779 13.7988 19.1406c2.8877 -2.16797 1.87109 -4.96582 1.90723 -7.31836c0.125 -11.7295 -0.338867 -23.4961 0.142578 -35.207
c0.65918 -16.8242 -6.06152 -29.8877 -17.7207 -40.7461c-14.4219 -13.4336 -31.4824 -22.0684 -49.6309 -28.332c-41.0195 -14.1191 -83.2529 -18.8623 -126.287 -16.7129c-35.4053 1.77832 -70.1328 7.52246 -103.113 21.7158
c-16.668 7.13477 -32.1953 16.251 -44.0859 30.9082c-6.81055 8.39355 -10.7148 17.918 -10.6611 29.0166c0.0537109 15.417 0.0175781 30.7959 0.0175781 46.1758zM430.479 112.984c1.12305 -18.6035 2.58496 -36.9111 0.25 -55.0518
c-1.80078 -14.1562 -11.0889 -24.0693 -21.5 -32.4639c-16.543 -13.3965 -35.458 -22.0127 -55.5312 -27.6826c-64.998 -18.3447 -130.085 -18.3818 -195.101 -0.111328c-20.0742 5.65137 -38.9707 14.2861 -55.6035 27.5352
c-15.0996 11.9697 -24.0664 26.9971 -22.8896 47.7314c0.748047 13.249 0.160156 26.6094 0.160156 42.415c26.9551 -44.3975 69.0088 -55.0518 111.438 -63.1865c52.377 -10.0244 104.753 -7.81934 156.452 6.26367c19.8594 5.3916 38.7021 13.2109 55.834 25.1816
c10.875 7.61523 19.5928 17.3066 26.4912 29.3691zM430.479 281.732c0.695312 -19.3633 3.2627 -38.5039 -0.40918 -57.3672c-2.6748 -13.8604 -12.4795 -23.3467 -23.0332 -31.4443c-24.584 -18.8633 -53.125 -27.5723 -82.5576 -33.1123
c-54.9258 -10.3213 -109.619 -8.89453 -163.672 6.52246c-23.5674 6.68848 -45.8867 16.25 -64.1953 33.8721c-11.124 10.7471 -16.9541 23.5508 -16.4727 39.5977c0.392578 13.8965 0.0888672 27.7939 1.15918 42.0801c6.39941 -10.1357 13.5488 -18.9551 22.5869 -26.0156
c13.7979 -10.7842 29.1475 -18.6406 45.5664 -23.8105c70.9873 -22.3643 142.136 -22.291 213.142 0.0371094c7.6123 2.39062 14.9746 5.7998 22.1592 9.37598c18.416 9.11719 35.0127 20.624 45.7266 40.2646z" />
    <glyph glyph-name="uniF103" unicode="&#xf103;" 
d="M224.313 416.039l63.751 -0.254883l-14.1396 -335.383h-33.3125zM224.61 31.4404l65.6523 -0.503906v-64.1611h-65.1455z" />
    <glyph glyph-name="uniF115" unicode="&#xf115;" 
d="M480 336l-320 -320l-128 128l32 32l96 -96l288 288z" />
    <glyph glyph-name="uniF106" unicode="&#xf106;" 
d="M292.812 361.594c39.7646 0 72 -32.2354 72 -72c-0.00488281 -2.40039 -0.129883 -4.7998 -0.375 -7.1875c-9.62695 -60.29 -60.1338 -72.334 -68.4375 -162.406h-8c-0.18457 88.9023 -58.3145 100.779 -66.7188 162
c-0.290039 2.52148 -0.446289 5.05566 -0.46875 7.59375c0 39.7646 32.2354 72 72 72zM292.812 313.594c-13.2549 0 -24 -10.7451 -24 -24s10.7451 -24 24 -24s24 10.7451 24 24s-10.7451 24 -24 24zM62.4375 335.5h160.031
c-8.03027 -12.7168 -12.8438 -27.6611 -12.8438 -43.8125c0.0253906 -2.9043 0.199219 -5.80176 0.53125 -8.6875c9.61816 -70.0635 72.9443 -83.6621 73.1562 -185.406h15.5625c4.61133 50.0166 19.8467 78.8975 35.5625 103.375v-137.469c0 -8.86426 -7.13574 -16 -16 -16
h-256c-8.86426 0 -16 7.13574 -16 16v256c0 8.86426 7.13574 16 16 16zM134.75 304c-13.1904 -0.299805 -25.8506 -5.24609 -35.75 -13.9688c-20.5107 -18.0508 -25 -48.2656 -10.625 -71.5c14.376 -23.2305 43.4121 -32.6982 68.7188 -22.4062
c25.3115 10.2832 39.5059 37.3281 33.5938 64l-0.5625 -0.125h-46.125v-24h21.625c-4.88477 -12.0742 -16.5996 -19.9834 -29.625 -20c-17.6738 0 -32 14.3271 -32 32s14.3262 32 32 32c7.33008 -0.00976562 14.4336 -2.53613 20.125 -7.15625l15.125 18.6875
c-10.3066 8.34766 -23.2402 12.7656 -36.5 12.4688zM416.313 416.039l63.751 -0.254883l-14.1396 -335.383h-33.3125zM416.61 31.4404l65.6523 -0.503906v-64.1611h-65.1455z" />
    <glyph glyph-name="uniF117" unicode="&#xf117;" 
d="M256 16l-224 352h448z" />
    <glyph glyph-name="uniF113" unicode="&#xf113;" 
d="M159.253 386.81c12.6865 3.72852 54.9326 11.4072 80.7471 13.1904v-64h-64l80 -80l80 80h-64v64c35.6426 -1.60254 71.001 -7.37109 105.517 -22.2324c16.6514 -7.1709 32.2422 -16.3262 43.8477 -31.2432c13.8516 -17.8066 13.7197 -37.9268 -0.470703 -55.5488
c-11.4453 -14.2305 -26.458 -23.252 -42.5918 -30.2373c-39.79 -17.2324 -81.6445 -22.7842 -124.412 -22.6543c-40.4854 0.185547 -80.1084 5.83398 -117.974 21.584c-14.9209 6.22656 -28.8584 14.291 -40.3926 26.1865
c-20.4834 21.1055 -20.3945 46.3115 0.53418 66.9902c17.8447 17.6582 39.9668 27.0166 63.1953 33.9648zM80.2988 197.053c18.4512 -30.0732 46.6543 -43.0996 76.6748 -51.8643c69.3125 -20.2344 138.731 -19.623 207.562 3.11328
c18.9863 6.2998 36.7061 15.5273 51.3955 30.1104c5.59766 5.57715 9.53809 12.3779 13.7988 19.1406c2.8877 -2.16797 1.87109 -4.96582 1.90723 -7.31836c0.125 -11.7295 -0.338867 -23.4961 0.142578 -35.207c0.65918 -16.8242 -6.06152 -29.8877 -17.7207 -40.7461
c-14.4219 -13.4336 -31.4824 -22.0684 -49.6309 -28.332c-41.0195 -14.1191 -83.2529 -18.8623 -126.287 -16.7129c-35.4053 1.77832 -70.1328 7.52246 -103.113 21.7158c-16.668 7.13477 -32.1953 16.251 -44.0859 30.9082
c-6.81055 8.39355 -10.7148 17.918 -10.6611 29.0166c0.0537109 15.417 0.0175781 30.7959 0.0175781 46.1758zM430.479 112.984c1.12305 -18.6035 2.58496 -36.9111 0.25 -55.0518c-1.80078 -14.1562 -11.0889 -24.0693 -21.5 -32.4639
c-16.543 -13.3965 -35.458 -22.0127 -55.5312 -27.6826c-64.998 -18.3447 -130.085 -18.3818 -195.101 -0.111328c-20.0742 5.65137 -38.9707 14.2861 -55.6035 27.5352c-15.0996 11.9697 -24.0664 26.9971 -22.8896 47.7314
c0.748047 13.249 0.160156 26.6094 0.160156 42.415c26.9551 -44.3975 69.0088 -55.0518 111.438 -63.1865c52.377 -10.0244 104.753 -7.81934 156.452 6.26367c19.8594 5.3916 38.7021 13.2109 55.834 25.1816c10.875 7.61523 19.5928 17.3066 26.4912 29.3691z
M430.479 281.732c0.695312 -19.3633 3.2627 -38.5039 -0.40918 -57.3672c-2.6748 -13.8604 -12.4795 -23.3467 -23.0332 -31.4443c-24.584 -18.8633 -53.125 -27.5723 -82.5576 -33.1123c-54.9258 -10.3213 -109.619 -8.89453 -163.672 6.52246
c-23.5674 6.68848 -45.8867 16.25 -64.1953 33.8721c-11.124 10.7471 -16.9541 23.5508 -16.4727 39.5977c0.392578 13.8965 0.0888672 27.7939 1.15918 42.0801c6.39941 -10.1357 13.5488 -18.9551 22.5869 -26.0156c13.7979 -10.7842 29.1475 -18.6406 45.5664 -23.8105
c70.9873 -22.3643 142.136 -22.291 213.142 0.0371094c7.6123 2.39062 14.9746 5.7998 22.1592 9.37598c18.416 9.11719 35.0127 20.624 45.7266 40.2646z" />
    <glyph glyph-name="uniF100" unicode="&#xf100;" 
d="M256 416h96v-96h-17.375c18.3174 -29.5645 49.4023 -50.7529 67.4062 -80h45.9688v-96h-96v96h17.6875c-17.5889 27.9922 -47.3506 48.1846 -65.6875 75.7812c-18.3369 -27.5967 -48.0986 -47.7891 -65.6875 -75.7812h17.6875v-96h-17.375
c18.3271 -29.5801 49.5254 -50.7178 67.5 -80h45.875v-96h-96v96h17.6875c-17.5889 27.9922 -47.3506 48.1846 -65.6875 75.7812c-18.3369 -27.5967 -48.0986 -47.7891 -65.6875 -75.7812h17.6875v-96h-96v96h45.875c17.9746 29.2822 49.1729 50.4199 67.5 80h-17.375v96
h45.9688c18.0039 29.2471 49.0889 50.4355 67.4062 80h-17.375v96z" />
    <glyph glyph-name="uniF110" unicode="&#xf110;" 
d="M80 176.086v0l96.6113 -85.1113l-96.6113 -108.178v193.289zM261.798 25.6855l-0.0214844 -0.0429688l59.7949 53.2832l101.627 -110.926h-334.798l100.293 112.301l62.1016 -54.7012c1.54492 -1.33105 3.5127 -1.97559 5.50098 -1.97559
c1.9043 0 3.91504 0.708984 5.50195 2.06152zM431.915 -16.7305l-97.7324 106.867l97.7324 87.0664v-193.934zM80.042 208l-0.0419922 -0.0644531h352v-7.64551l-175.641 -156.671l-176.317 155.21v9.1709zM255.875 224l-79.875 80h64v112h32v-112h64z" />
    <glyph glyph-name="uniF10D" unicode="&#xf10d;" 
d="M32 -32l272 448h32l-272 -448h-32zM176 -32l272 448h32l-272 -448h-32z" />
    <glyph glyph-name="uniF109" unicode="&#xf109;" 
d="M190.55 29.041v-29.0967h-8.63965c-23.1315 0 -38.6455 4.98405 -46.542 14.9521c-7.80339 9.96875 -11.7051 29.8382 -11.7051 59.6084v48.292c0 20.3411 -2.50814 34.4183 -7.52441 42.2314c-5.01693 7.8125 -14.1211 11.7188 -27.3125 11.7188h-8.5v28.8945h8.5
c13.2845 0 22.3887 3.83919 27.3125 11.5176c5.01628 7.81315 7.52441 21.7555 7.52441 41.8271v48.4941c0 29.7702 3.90169 49.5723 11.7051 59.4062c7.89648 9.9681 23.4105 14.9521 46.542 14.9521h8.63965v-28.8945h-9.47559
c-13.0983 0 -21.6449 -2.96354 -25.6396 -8.89062s-5.99219 -18.3877 -5.99219 -37.3818v-50.1104c0 -21.1491 -2.13672 -36.5059 -6.41016 -46.0703c-4.18034 -9.5638 -11.3799 -16.0296 -21.5986 -19.3975c10.3118 -3.63737 17.5579 -10.238 21.7383 -19.8018
c4.18034 -9.56445 6.27051 -24.8538 6.27051 -45.8682v-50.1113c0 -18.9935 1.9974 -31.4538 5.99219 -37.3809s12.5413 -8.89062 25.6396 -8.89062h9.47559zM319.795 29.9746h9.84375c13.125 0 21.6562 2.88835 25.5938 8.66504
c4.03125 5.77734 6.04688 18.2721 6.04688 37.4844v49.9785c0 20.9583 2.10938 36.207 6.32812 45.7461s11.5312 16.1224 21.9375 19.75c-10.4062 3.35872 -17.7188 9.80729 -21.9375 19.3457c-4.21875 9.53906 -6.32812 24.8551 -6.32812 45.9482v49.9785
c0 19.0781 -2.01562 31.5055 -6.04688 37.2822c-3.9375 5.91146 -12.4688 8.86719 -25.5938 8.86719h-9.84375v28.8184h8.85938c23.3438 0 38.9062 -4.97103 46.6875 -14.9131c7.875 -9.80729 11.8125 -29.5566 11.8125 -59.248v-48.3662
c0 -20.0189 2.53125 -33.9245 7.59375 -41.7168c5.0625 -7.65755 14.25 -11.4863 27.5625 -11.4863h8.71875v-28.8184h-8.71875c-13.3125 0 -22.5 -3.89616 -27.5625 -11.6885s-7.59375 -21.832 -7.59375 -42.1191v-48.165c0 -29.6914 -3.9375 -49.5081 -11.8125 -59.4502
c-7.78125 -9.94141 -23.3438 -14.9121 -46.6875 -14.9121h-8.85938v29.0195z" />
    <glyph glyph-name="uniF112" unicode="&#xf112;" horiz-adv-x="511" 
d="M304.536 304l175.464 -114.437l-174.714 -109.563l-0.3125 96.1426l-272.974 -0.999023v32.7139l272.849 2.06152z" />
    <glyph glyph-name="uniF10C" unicode="&#xf10c;" 
d="M158.356 98.5518h-21.4658l-88.4043 156.534h-0.885742c1.18034 -18.3711 1.77051 -35.2109 1.77051 -50.5195v-106.015h-17.3711v186.514h21.2441l88.1836 -155.896h0.884766c-0.147135 2.29622 -0.479167 9.65299 -0.996094 22.0703
c-0.516276 12.502 -0.700521 21.432 -0.552734 26.79v107.035h17.5928v-186.514zM343.243 192.063c0 -29.8522 -6.56478 -53.3258 -19.6943 -70.4209c-13.056 -17.0951 -31.2386 -25.6426 -54.5479 -25.6426c-23.8255 0 -42.2295 8.37728 -55.2119 25.1318
c-12.9082 16.8398 -19.3623 40.569 -19.3623 71.1875c0 30.3626 6.49089 53.8789 19.4727 70.5488c12.9824 16.7546 31.4232 25.1318 55.3223 25.1318c23.2357 0 41.3815 -8.50488 54.4375 -25.5146c13.056 -17.0104 19.584 -40.4844 19.584 -70.4219zM214.343 192.063
c0 -25.2598 4.64681 -44.4385 13.9404 -57.5361c9.36784 -13.0124 22.9404 -19.5186 40.7178 -19.5186c17.9245 0 31.46 6.50618 40.6064 19.5186c9.14648 13.013 13.7197 32.1917 13.7197 57.5361c0 25.0898 -4.57324 44.0986 -13.7197 57.0264
c-9.07292 13.0124 -22.5348 19.5186 -40.3857 19.5186c-17.9245 0 -31.5706 -6.54883 -40.9385 -19.6465c-9.29362 -13.0124 -13.9404 -31.9785 -13.9404 -56.8984zM428.771 98.5518h-18.8096v167.25h-51.2285v19.2637h121.267v-19.2637h-51.2285v-167.25z" />
    <glyph glyph-name="uniF114" unicode="&#xf114;" 
d="M176 384c30.9971 30.9971 64 16 79.9219 -1.61328c16.0781 17.6133 49.1514 32.54 80.0781 1.61328c48 -48 -79.4512 -143.98 -79.4512 -144c0 0 -128.549 96 -80.5488 144zM80 176.086v0l96.6113 -85.1113l-96.6113 -108.178v193.289zM261.798 25.6855
l-0.0214844 -0.0429688l59.7949 53.2832l101.627 -110.926h-334.798l100.293 112.301l62.1016 -54.7012c1.54492 -1.33105 3.5127 -1.97559 5.50098 -1.97559c1.9043 0 3.91504 0.708984 5.50195 2.06152zM431.915 -16.7305l-97.7324 106.867l97.7324 87.0664v-193.934z
M80.042 208l-0.0419922 -0.0644531h352v-7.64551l-175.641 -156.671l-176.317 155.21v9.1709z" />
    <glyph glyph-name="uniF10F" unicode="&#xf10f;" 
d="M192 96l32 -24l-31.9258 -24l-0.0742188 16h-32c-38.3193 -0.544922 -48 -80 -96 -80h-32v16h32c39.9756 -0.0947266 48 80 96 80h32v16zM32 80h32c19.1914 0 32.1865 -12.7812 43.4062 -28.0625l-9.09375 -12c-9.5332 13.4365 -19.7979 24.0977 -34.3125 24.0625h-32v16
zM125.875 25c9.71777 -13.7627 19.9639 -24.7988 34.125 -25h32l0.0625 16l31.9375 -24l-32 -24v16h-32c-19.4316 0 -32.2432 13.2256 -43.3438 28.8438zM336 336h0.375h143.625v-32h-131.344l-125.531 -104.688c0.475586 -1.99023 0.867188 -5.2666 0.875 -7.3125
c0 -17.6641 -14.3359 -32 -32 -32c-10.1777 0.0175781 -22.5674 7.18555 -27.6562 16h-132.344v32h132.312c5.09473 8.82422 17.498 15.9922 27.6875 16c2.42676 -0.00976562 6.29102 -0.555664 8.625 -1.21875l135.375 112.906v0.3125zM336 80h144v-32h-144v32z" />
    <glyph glyph-name="uniF10E" unicode="&#xf10e;" 
d="M336 336h0.375h143.625v-32h-131.344l-125.531 -104.688c0.475586 -1.99023 0.867188 -5.2666 0.875 -7.3125c0 -17.6641 -14.3359 -32 -32 -32c-10.1777 0.0175781 -22.5674 7.18555 -27.6562 16h-132.344v32h132.312c5.09473 8.82422 17.498 15.9922 27.6875 16
c2.42676 -0.00976562 6.29102 -0.555664 8.625 -1.21875l135.375 112.906v0.3125zM336 80h144v-32h-144v32z" />
    <glyph glyph-name="uniF10B" unicode="&#xf10b;" 
d="M80 336l32 32l144 -144l144 144l32 -32l-144 -144l144 -144l-32 -32l-144 144l-144 -144l-32 32l144 144z" />
    <glyph glyph-name="uniF104" unicode="&#xf104;" 
d="M48 320h320c30.4639 -0.0615234 36.1807 -17.7979 32 -32l-32 -112l16 -128c4.18066 -23.3936 0.584961 -32.6455 -32 -32h-288c-33.999 -0.645508 -36.8877 5.07129 -32 32l16 128l-32 112c-7.00879 19.1514 0.12207 31.2314 32 32zM162.844 256
c-8.48047 0 -16.0928 -1.44238 -22.8125 -4.34375s-12.4814 -6.93652 -17.2812 -12.0938c-4.63965 -5.15723 -8.31152 -11.2832 -11.0312 -18.375c-2.71973 -6.93066 -4.24219 -14.499 -4.5625 -22.7188h27.375c-0.160156 4.35156 0.317383 8.5332 1.4375 12.5625
c1.12012 4.19043 2.79102 7.90137 5.03125 11.125c2.40039 3.38477 5.35547 6.03516 8.875 7.96875c3.51953 1.93457 7.7002 2.90625 12.5 2.90625c7.67969 0 13.9189 -2.17969 18.7188 -6.53125c4.95996 -4.35156 7.4375 -10.1533 7.4375 -17.4062
c0 -5.15723 -1.13477 -9.5166 -3.375 -13.0625c-2.08008 -3.5459 -4.88672 -6.3418 -8.40625 -8.4375c-3.51953 -1.93359 -7.51953 -3.31934 -12 -4.125s-8.95703 -1.12988 -13.4375 -0.96875v-20.5312c5.44043 0.161133 10.7236 -0.0166016 15.8438 -0.5
c5.28027 -0.483398 9.99609 -1.7793 14.1562 -3.875c4.16016 -1.93359 7.53418 -4.81934 10.0938 -8.6875c2.56055 -3.86816 3.84375 -9.11035 3.84375 -15.7188c0 -9.66992 -3.13477 -17.1504 -9.375 -22.4688c-6.08008 -5.15723 -13.6611 -7.75 -22.7812 -7.75
c-10.7197 0 -18.8096 3.38672 -24.25 10.1562c-5.28027 6.93066 -7.75781 15.5596 -7.4375 25.875h-27.375c0.160156 -8.86426 1.53418 -16.9346 4.09375 -24.1875s6.23145 -13.4678 11.0312 -18.625c4.95996 -5.15723 11.0498 -9.16113 18.25 -12.0625
c7.36035 -2.74023 15.9277 -4.125 25.6875 -4.125c8 0 15.5811 1.20703 22.7812 3.625s13.5283 5.80469 18.9688 10.1562c5.44043 4.5127 9.76855 9.90137 12.9688 16.1875c3.2002 6.44727 4.78125 13.7227 4.78125 21.7812c0 10.96 -2.71582 20.2061 -8.15625 27.7812
c-5.28027 7.73633 -12.7129 12.5664 -22.3125 14.5v0.5c8.16016 2.90137 14.1602 7.49512 18 13.7812c3.83984 6.44727 5.75 13.9268 5.75 22.4688c0 7.41406 -1.52246 13.9531 -4.5625 19.5938c-3.04004 5.80176 -7.09863 10.543 -12.2188 14.25
c-4.95996 3.70703 -10.6621 6.53516 -17.0625 8.46875c-6.24023 1.93457 -12.6279 2.90625 -19.1875 2.90625zM305.136 256l-66.417 -21.7812l0.785156 -26.2188l38.8965 12.7998v-140.8h27.5195zM416.313 416.039l63.751 -0.254883l-14.1396 -335.383h-33.3125z
M416.61 31.4404l65.6523 -0.503906v-64.1611h-65.1455zM64 400h288c16.3232 -0.768555 31.2314 -17.0908 32 -32v-32h-352v32c0.0615234 17.0303 16.3838 31.2314 32 32zM96 384c-8.83691 0 -16 -7.16309 -16 -16s7.16309 -16 16 -16s16 7.16309 16 16s-7.16309 16 -16 16z
M320 384c-8.83691 0 -16 -7.16309 -16 -16s7.16309 -16 16 -16s16 7.16309 16 16s-7.16309 16 -16 16z" />
  </font>
</defs>
</svg>
