<svg id="Calque_1" data-name="Calque 1" xmlns="http://www.w3.org/2000/svg" viewBox="0 0 32 32"><title>craft-ai-icons-chip</title><path d="M23.11,30H8.89A0.8,0.8,0,0,1,8,29V3a0.8,0.8,0,0,1,.89-1H23.11A0.8,0.8,0,0,1,24,3V29A0.8,0.8,0,0,1,23.11,30Z"/><path d="M23.13,9h4.51A1,1,0,0,1,28,10h0a1,1,0,0,1-.37,1H23.13"/><path d="M23.13,15h4.5A1,1,0,0,1,28,16h0a1,1,0,0,1-.37,1h-4.5"/><path d="M23.13,21h4.51A1,1,0,0,1,28,22h0a1,1,0,0,1-.37,1H23.13"/><path d="M8.88,9H4.37A1,1,0,0,0,4,10H4a1,1,0,0,0,.37,1H8.88"/><path d="M8.87,15H4.37A1,1,0,0,0,4,16H4a1,1,0,0,0,.37,1h4.5"/><path d="M8.88,21H4.37A1,1,0,0,0,4,22H4a1,1,0,0,0,.37,1H8.88"/></svg>