<svg id="Calque_1" data-name="Calque 1" xmlns="http://www.w3.org/2000/svg" viewBox="0 0 24 28"><title>chip</title><path id="puce" d="M19.11,28H4.89C4.25,28,4,27.72,4,27V1c0-.72.25-1,.89-1H19.11c.64,0,.89.28.89,1V27C20,27.72,19.75,28,19.11,28Z"/><path d="M19.13,7h4.51c.2,0,.37.45.37,1h0c0,.54-.17,1-.37,1H19.13"/><path d="M19.13,13h4.5c.2,0,.37.45.37,1h0c0,.55-.17,1-.37,1h-4.5"/><path d="M19.13,19h4.51c.2,0,.37.45.37,1h0c0,.55-.17,1-.37,1H19.13"/><path d="M4.88,7H.37C.17,7,0,7.45,0,8H0c0,.54.17,1,.37,1H4.88"/><path d="M4.87,13H.37c-.2,0-.37.45-.37,1H0c0,.55.17,1,.37,1h4.5"/><path d="M4.88,19H.37c-.2,0-.37.45-.37,1H0c0,.56.17,1,.37,1H4.88"/></svg>