<?xml version="1.0" encoding="UTF-8" standalone="no"?>
<!-- Created with Inkscape (http://www.inkscape.org/) -->

<svg
   xmlns:dc="http://purl.org/dc/elements/1.1/"
   xmlns:cc="http://creativecommons.org/ns#"
   xmlns:rdf="http://www.w3.org/1999/02/22-rdf-syntax-ns#"
   xmlns:svg="http://www.w3.org/2000/svg"
   xmlns="http://www.w3.org/2000/svg"
   xmlns:sodipodi="http://sodipodi.sourceforge.net/DTD/sodipodi-0.dtd"
   xmlns:inkscape="http://www.inkscape.org/namespaces/inkscape"
   width="32"
   height="32"
   id="svg3378"
   version="1.1"
   inkscape:version="0.91 r13725"
   viewBox="0 0 32 32"
   sodipodi:docname="knowledge.svg"
   inkscape:export-filename="/Users/cloderic/Documents/Dev/craft-ai/editor/data/craft-icons/svg/knowledge.png"
   inkscape:export-xdpi="1730.4546"
   inkscape:export-ydpi="1730.4546">
  <defs
     id="defs3380" />
  <sodipodi:namedview
     id="base"
     pagecolor="#ffffff"
     bordercolor="#666666"
     borderopacity="1.0"
     inkscape:pageopacity="0.0"
     inkscape:pageshadow="2"
     inkscape:zoom="27.891555"
     inkscape:cx="7.0396997"
     inkscape:cy="21.055419"
     inkscape:current-layer="layer1"
     showgrid="true"
     inkscape:grid-bbox="true"
     inkscape:document-units="px"
     inkscape:window-width="1440"
     inkscape:window-height="806"
     inkscape:window-x="0"
     inkscape:window-y="0"
     inkscape:window-maximized="1">
    <inkscape:grid
       type="xygrid"
       id="grid3386" />
  </sodipodi:namedview>
  <metadata
     id="metadata3383">
    <rdf:RDF>
      <cc:Work
         rdf:about="">
        <dc:format>image/svg+xml</dc:format>
        <dc:type
           rdf:resource="http://purl.org/dc/dcmitype/StillImage" />
        <dc:title />
      </cc:Work>
    </rdf:RDF>
  </metadata>
  <g
     id="layer1"
     inkscape:label="Layer 1"
     inkscape:groupmode="layer">
    <path
       style="fill:#000000"
       d="M 27,8.0612307 A 11,5.0821819 0 0 1 16,13.143413 11,5.0821819 0 0 1 5,8.0612307 11,5.0821819 0 0 1 16,2.9790487 11,5.0821819 0 0 1 27,8.0612307 Z"
       id="path3363" />
    <g
       id="g3480"
       transform="matrix(1.1141998,0,0,1.1580969,0.20313192,-1.8794981)"
       style="fill:#000000">
      <g
         display="none"
         id="Layer_1"
         style="display:none;fill:#000000">
        <g
           id="g3457"
           display="inline"
           transform="translate(-361,-518.362)"
           style="display:inline;fill:#000000">
          <path
             id="path3459"
             d="m 390.625,517.94 c -2.38,0 -4.313,1.68 -4.313,3.782 0,0.344 0.09,0.682 0.188,1 -1.277,0.44 -2.188,1.53 -2.188,2.812 0,1.593 1.416,2.884 3.188,3 -0.02,0.152 -0.063,0.312 -0.063,0.47 0,2.174 2.004,3.936 4.47,3.936 1.215,0 2.319,-0.43 3.124,-1.125 0.467,0.586 1.252,0.97 2.125,0.97 0.82,0 1.529,-0.351 2,-0.876 0.369,0.391 0.91,0.652 1.535,0.652 0.806,0 1.522,-0.428 1.844,-1.03 0.5,0.29 1.104,0.5 1.75,0.5 1.747,0 3.154,-1.272 3.154,-2.813 0,-0.964 -0.563,-1.81 -1.405,-2.313 0.332,-0.552 0.562,-1.177 0.562,-1.845 0,-2.175 -2.002,-3.937 -4.47,-3.937 l -0.124,0 c -0.343,-1.062 -1.436,-1.844 -2.75,-1.844 -0.186,0 -0.355,0.034 -0.529,0.064 l 0,5.812 3,0 -5.127,5.124 -5.125,-5.123 2.969,0 -0.002,-5.157 c -0.709,-1.229 -2.14,-2.064 -3.81,-2.064 l -0.003,0.005 z m 12.688,15.063 c -1.36,0 -2.47,1.03 -2.47,2.28 0,1.252 1.108,2.25 2.47,2.25 1.36,0 2.469,-0.998 2.469,-2.25 0,-1.25 -1.106,-2.28 -2.471,-2.28 l 0.002,0 z m -3.22,4.47 c -0.68,0 -1.218,0.514 -1.218,1.154 0,0.639 0.538,1.155 1.221,1.155 0.68,0 1.25,-0.517 1.25,-1.155 0,-0.641 -0.57,-1.156 -1.25,-1.156 l -0.003,0.002 z"
             inkscape:connector-curvature="0"
             style="fill:#000000" />
        </g>
      </g>
      <g
         id="Layer_2"
         style="fill:#000000">
        <path
           id="path3464"
           d="m 4.322,15.166 c 1.035,1.623 2.617,2.326 4.301,2.799 3.888,1.092 7.782,1.059 11.643,-0.168 1.065,-0.34 2.059,-0.838 2.883,-1.625 0.314,-0.301 0.535,-0.668 0.774,-1.033 0.162,0.117 0.105,0.268 0.107,0.395 0.007,0.633 -0.019,1.268 0.008,1.9 0.037,0.908 -0.34,1.613 -0.994,2.199 -0.809,0.725 -1.766,1.191 -2.784,1.529 -2.301,0.762 -4.67,1.018 -7.084,0.902 C 11.19,21.968 9.242,21.658 7.392,20.892 6.457,20.507 5.586,20.015 4.919,19.224 4.537,18.771 4.318,18.257 4.321,17.658 4.324,16.826 4.322,15.996 4.322,15.166"
           inkscape:connector-curvature="0"
           style="clip-rule:evenodd;fill:#000000;fill-rule:evenodd" />
        <path
           id="path3466"
           d="m 23.965,19.703 c 0.063,1.004 0.145,1.992 0.014,2.971 -0.101,0.764 -0.622,1.299 -1.206,1.752 -0.928,0.723 -1.989,1.188 -3.115,1.494 -3.646,0.99 -7.297,0.992 -10.944,0.006 C 7.588,25.621 6.528,25.155 5.595,24.44 4.748,23.794 4.245,22.983 4.311,21.864 4.353,21.149 4.32,20.428 4.32,19.575 c 1.512,2.396 3.871,2.971 6.251,3.41 2.938,0.541 5.876,0.422 8.776,-0.338 1.114,-0.291 2.171,-0.713 3.132,-1.359 0.61,-0.411 1.099,-0.934 1.486,-1.585"
           inkscape:connector-curvature="0"
           style="clip-rule:evenodd;fill:#000000;fill-rule:evenodd" />
        <path
           id="path3468"
           d="m 23.965,10.596 c 0.039,1.045 0.183,2.078 -0.023,3.096 -0.15,0.748 -0.7,1.26 -1.292,1.697 -1.379,1.018 -2.98,1.488 -4.631,1.787 -3.081,0.557 -6.149,0.48 -9.181,-0.352 C 7.516,16.463 6.264,15.947 5.237,14.996 4.613,14.416 4.286,13.725 4.313,12.859 c 0.022,-0.75 0.005,-1.5 0.065,-2.271 0.359,0.547 0.76,1.023 1.267,1.404 0.774,0.582 1.635,1.006 2.556,1.285 3.982,1.207 7.973,1.203 11.956,-0.002 0.427,-0.129 0.84,-0.313 1.243,-0.506 1.033,-0.492 1.964,-1.113 2.565,-2.173"
           inkscape:connector-curvature="0"
           style="clip-rule:evenodd;fill:#000000;fill-rule:evenodd" />
        <g
           id="g3470"
           style="fill:#000000" />
      </g>
    </g>
  </g>
</svg>
