<?xml version="1.0" encoding="UTF-8" standalone="no"?>
<!-- Created with Inkscape (http://www.inkscape.org/) -->

<svg
   xmlns:dc="http://purl.org/dc/elements/1.1/"
   xmlns:cc="http://creativecommons.org/ns#"
   xmlns:rdf="http://www.w3.org/1999/02/22-rdf-syntax-ns#"
   xmlns:svg="http://www.w3.org/2000/svg"
   xmlns="http://www.w3.org/2000/svg"
   xmlns:sodipodi="http://sodipodi.sourceforge.net/DTD/sodipodi-0.dtd"
   xmlns:inkscape="http://www.inkscape.org/namespaces/inkscape"
   width="32"
   height="32"
   id="svg3381"
   version="1.1"
   inkscape:version="0.91 r13725"
   viewBox="0 0 32 32"
   sodipodi:docname="node-priority-selector.svg">
  <defs
     id="defs3383" />
  <sodipodi:namedview
     id="base"
     pagecolor="#ffffff"
     bordercolor="#666666"
     borderopacity="1.0"
     inkscape:pageopacity="0.0"
     inkscape:pageshadow="2"
     inkscape:zoom="27.019758"
     inkscape:cx="13.321973"
     inkscape:cy="21.934455"
     inkscape:current-layer="g3487"
     showgrid="true"
     inkscape:grid-bbox="true"
     inkscape:document-units="px"
     inkscape:window-width="1440"
     inkscape:window-height="806"
     inkscape:window-x="0"
     inkscape:window-y="0"
     inkscape:window-maximized="1">
    <inkscape:grid
       type="xygrid"
       id="grid3500" />
  </sodipodi:namedview>
  <metadata
     id="metadata3386">
    <rdf:RDF>
      <cc:Work
         rdf:about="">
        <dc:format>image/svg+xml</dc:format>
        <dc:type
           rdf:resource="http://purl.org/dc/dcmitype/StillImage" />
        <dc:title />
      </cc:Work>
    </rdf:RDF>
  </metadata>
  <g
     id="layer1"
     inkscape:label="Layer 1"
     inkscape:groupmode="layer">
    <g
       id="g3487"
       transform="matrix(1.0577214,0,0,1.3697848,0.64294348,-3.1037042)"
       style="fill:#000000">
      <path
         id="path3459"
         d="m 2.922,13.303 7.958,0.015 -0.005,1.766 -7.958,-0.016 0.005,-1.765 z m 7.36,0.633 6.19,-6.496 1.234,1.227 -6.125,6.458 -1.299,-1.189 z"
         display="none"
         inkscape:connector-curvature="0"
         style="display:none;fill:#000000" />
      <path
         id="path3465"
         d="m 17.75,13.093 6.691,0.013 -0.004,1.724 -6.689,-0.014 0.002,-1.723 z m 0.002,5.477 6.566,0.013 -0.006,1.519 -6.565,-0.013 0.005,-1.519 z"
         display="none"
         inkscape:connector-curvature="0"
         style="display:none;fill:#000000" />
      <path
         style="fill:#000000"
         d="M 21 7 L 21 7.0195312 L 12.539062 14.076172 A 2 2 0 0 0 12 14 A 2 2 0 0 0 10.269531 15 L 2 15 L 2 17 L 10.271484 17 A 2 2 0 0 0 12 18 A 2 2 0 0 0 14 16 A 2 2 0 0 0 13.945312 15.542969 L 21.791016 9 L 30 9 L 30 7 L 21.023438 7 L 21 7 z M 21 23 L 21 25 L 30 25 L 30 23 L 21 23 z "
         transform="matrix(0.94542854,0,0,0.73004168,-0.60785712,2.2658334)"
         id="path3473" />
      <g
         transform="scale(1.1379955,0.8787381)"
         style="font-style:normal;font-weight:normal;font-size:33.2313652px;line-height:125%;font-family:sans-serif;letter-spacing:0px;word-spacing:0px;fill:#000000;fill-opacity:1;stroke:none;stroke-width:1px;stroke-linecap:butt;stroke-linejoin:miter;stroke-opacity:1"
         id="text3355" />
    </g>
  </g>
</svg>
