<?xml version="1.0" encoding="UTF-8" standalone="no"?>
<!-- Created with Inkscape (http://www.inkscape.org/) -->

<svg
   xmlns:dc="http://purl.org/dc/elements/1.1/"
   xmlns:cc="http://creativecommons.org/ns#"
   xmlns:rdf="http://www.w3.org/1999/02/22-rdf-syntax-ns#"
   xmlns:svg="http://www.w3.org/2000/svg"
   xmlns="http://www.w3.org/2000/svg"
   xmlns:sodipodi="http://sodipodi.sourceforge.net/DTD/sodipodi-0.dtd"
   xmlns:inkscape="http://www.inkscape.org/namespaces/inkscape"
   width="32"
   height="32"
   id="svg3358"
   version="1.1"
   inkscape:version="0.91 r13725"
   viewBox="0 0 32 32"
   sodipodi:docname="node-until.svg">
  <defs
     id="defs3360" />
  <sodipodi:namedview
     id="base"
     pagecolor="#ffffff"
     bordercolor="#666666"
     borderopacity="1.0"
     inkscape:pageopacity="0.0"
     inkscape:pageshadow="2"
     inkscape:zoom="10.893285"
     inkscape:cx="26.555064"
     inkscape:cy="12.51654"
     inkscape:current-layer="g3436"
     showgrid="true"
     inkscape:grid-bbox="true"
     inkscape:document-units="px"
     inkscape:window-width="1440"
     inkscape:window-height="806"
     inkscape:window-x="10"
     inkscape:window-y="0"
     inkscape:window-maximized="0">
    <inkscape:grid
       type="xygrid"
       id="grid3366" />
  </sodipodi:namedview>
  <metadata
     id="metadata3363">
    <rdf:RDF>
      <cc:Work
         rdf:about="">
        <dc:format>image/svg+xml</dc:format>
        <dc:type
           rdf:resource="http://purl.org/dc/dcmitype/StillImage" />
        <dc:title />
      </cc:Work>
    </rdf:RDF>
  </metadata>
  <g
     id="layer1"
     inkscape:label="Layer 1"
     inkscape:groupmode="layer">
    <g
       id="g3436"
       transform="matrix(1.3904076,0,0,1.3421252,-3.3050057,-4.9059934)">
      <path
         id="ellipse3348"
         style="fill:#ff0000"
         ry="8.9410439"
         rx="8.6305628"
         cy="17.066957"
         cx="13.884422" />
      <path
         cx="13.884421"
         cy="15.576784"
         rx="10.06899"
         ry="10.431217"
         id="path3362"
         style="fill:#ffff00" />
      <path
         style="fill:#000000"
         d="M 16.101562 2 A 14 13.999999 0 0 0 10.642578 3.0664062 A 14 13.999999 0 0 0 2.2695312 18.730469 A 14 13.999999 0 0 0 16 30 L 16 28 A 12 12 0 0 1 4 16 A 12 12 0 0 1 16 4 A 12 12 0 0 1 28 16 A 12 12 0 0 1 24.480469 24.480469 L 25.900391 25.900391 A 14 13.999999 0 0 0 27.640625 8.2226562 A 14 13.999999 0 0 0 16.101562 2 z "
         transform="matrix(0.71921356,0,0,0.74508697,2.3770049,3.6553918)"
         id="path3450" />
      <path
         style="fill:#000000"
         d="m 18.918918,18.557131 5.034495,5.215609 -5.034495,0 z"
         id="rect3452"
         inkscape:connector-curvature="0"
         sodipodi:nodetypes="cccc" />
      <g
         inkscape:label="Layer 1"
         id="layer1-2"
         transform="matrix(0.47947572,0,0,0.53066598,6.2128104,7.0646312)">
        <g
           transform="matrix(1.9944902,0,0,2.0728497,0.11591003,-0.12132366)"
           id="layer3"
           inkscape:label="condition"
           style="display:inline;fill:#000000">
          <path
             sodipodi:nodetypes="czcczzcccsc"
             style="fill:#000000"
             d="m 10.470891,4.4003787 c 0,-1.4472829 -1.0027623,-1.9297105 -2.506906,-1.9297105 -1.5041437,0 -2.5069063,0.4824276 -2.5069063,2.4121381 l -2.005525,0 C 3.5027007,1.9685626 5.9188673,1.0157694 7.963985,1.0233852 c 2.045118,0.00762 4.512431,0.9648552 4.512431,3.3769935 0,2.4121382 -3.5096685,2.8945659 -3.5096685,5.7891313 l 0,0.964856 -2.005525,0 -1e-7,-1.4472836 c -2e-7,-2.8945655 3.5096686,-3.3769931 3.5096686,-5.3067037 z"
             id="path3788"
             inkscape:connector-curvature="0" />
          <path
             sodipodi:nodetypes="ccccc"
             style="fill:#000000"
             d="m 6.9612225,12.601648 2.005525,0 0,1.929711 -2.005525,0.03913 z"
             id="path3790"
             inkscape:connector-curvature="0" />
        </g>
      </g>
    </g>
  </g>
</svg>
