<?xml version="1.0" encoding="UTF-8" standalone="no"?>
<!-- Created with Inkscape (http://www.inkscape.org/) -->

<svg
   xmlns:dc="http://purl.org/dc/elements/1.1/"
   xmlns:cc="http://creativecommons.org/ns#"
   xmlns:rdf="http://www.w3.org/1999/02/22-rdf-syntax-ns#"
   xmlns:svg="http://www.w3.org/2000/svg"
   xmlns="http://www.w3.org/2000/svg"
   xmlns:sodipodi="http://sodipodi.sourceforge.net/DTD/sodipodi-0.dtd"
   xmlns:inkscape="http://www.inkscape.org/namespaces/inkscape"
   width="32"
   height="32"
   id="svg3860"
   version="1.1"
   inkscape:version="0.91 r13725"
   viewBox="0 0 32 32"
   sodipodi:docname="node-subscribe.svg">
  <defs
     id="defs3862" />
  <sodipodi:namedview
     id="base"
     pagecolor="#ffffff"
     bordercolor="#666666"
     borderopacity="1.0"
     inkscape:pageopacity="0.0"
     inkscape:pageshadow="2"
     inkscape:zoom="29.875"
     inkscape:cx="17.338912"
     inkscape:cy="10.632814"
     inkscape:current-layer="layer1"
     showgrid="true"
     inkscape:grid-bbox="true"
     inkscape:document-units="px"
     inkscape:window-width="1440"
     inkscape:window-height="806"
     inkscape:window-x="0"
     inkscape:window-y="0"
     inkscape:window-maximized="1">
    <inkscape:grid
       type="xygrid"
       id="grid3919" />
  </sodipodi:namedview>
  <metadata
     id="metadata3865">
    <rdf:RDF>
      <cc:Work
         rdf:about="">
        <dc:format>image/svg+xml</dc:format>
        <dc:type
           rdf:resource="http://purl.org/dc/dcmitype/StillImage" />
        <dc:title></dc:title>
      </cc:Work>
    </rdf:RDF>
  </metadata>
  <g
     id="layer1"
     inkscape:label="Layer 1"
     inkscape:groupmode="layer">
    <path
       style="fill:#000000"
       d="m 11,4 c -3,3 5.034304,9 5.034304,9 C 16.034304,12.9988 24,7 21,4 19.067068,2.0670685 17,3 15.995144,4.1008423 15,3 12.937297,2.0627033 11,4 Z"
       id="path3910"
       inkscape:connector-curvature="0"
       sodipodi:nodetypes="scscs" />
    <g
       inkscape:label="Layer 1"
       id="layer1-7"
       transform="translate(-15.449461,-1.0618195e-6)">
      <g
         transform="matrix(1.3224333,0,0,1.3263219,-2.7759077,-2.5492652)"
         id="g3439">
        <g
           style="fill:#000000"
           transform="matrix(1,0,0,1.0120333,11.682601,-0.29530829)"
           id="Layer_1">
          <path
             style="fill:#000000"
             inkscape:connector-curvature="0"
             d="m 5.88,14.852 0,9 4.566,-5.037 -4.566,-3.963 0,0 z m 8.592,7.003 c -0.075,0.063 -0.17,0.096 -0.26,0.096 -0.094,0 -0.187,-0.03 -0.26,-0.092 l -2.935,-2.547 -4.74,5.229 15.823,0 -4.803,-5.165 -2.826,2.481 10e-4,-0.002 z m 8.04,1.975 0,-9.03 -4.619,4.054 4.619,4.976 z m -16.63,-10.464 0,0.427 8.333,7.227 8.301,-7.295 0,-0.356 -16.636,0 0.002,-0.003 z"
             id="path3426" />
        </g>
      </g>
    </g>
  </g>
</svg>
